<?xml version="1.0" encoding="UTF-8" standalone="no"?>
<svg
   version="1.0"
   width="496.64154"
   height="467.65042"
   viewBox="0 0 496.64154 467.65042"
   preserveAspectRatio="xMidYMid"
   id="svg70"
   sodipodi:docname="personapod-logo.svg"
   inkscape:version="1.2.2 (b0a8486541, 2022-12-01)"
   xmlns:inkscape="http://www.inkscape.org/namespaces/inkscape"
   xmlns:sodipodi="http://sodipodi.sourceforge.net/DTD/sodipodi-0.dtd"
   xmlns="http://www.w3.org/2000/svg"
   xmlns:svg="http://www.w3.org/2000/svg">
  <defs
     id="defs74" />
  <sodipodi:namedview
     id="namedview72"
     pagecolor="#505050"
     bordercolor="#eeeeee"
     borderopacity="1"
     inkscape:showpageshadow="0"
     inkscape:pageopacity="0"
     inkscape:pagecheckerboard="0"
     inkscape:deskcolor="#505050"
     showgrid="false"
     inkscape:zoom="1.3294702"
     inkscape:cx="140.28144"
     inkscape:cy="283.19552"
     inkscape:window-width="1920"
     inkscape:window-height="985"
     inkscape:window-x="0"
     inkscape:window-y="26"
     inkscape:window-maximized="1"
     inkscape:current-layer="svg70" />
  <rect
     style="fill:#ff4848;fill-opacity:1;fill-rule:nonzero"
     id="rect4688"
     width="457.5929"
     height="430.11948"
     x="66.594994"
     y="61.373688"
     clip-path="none"
     transform="matrix(1.0870235,0,0,1.087257,-72.390323,-66.728972)"
     ry="33.521198" />
  <g
     fill="#faf5e9"
     id="g32"
     clip-path="none"
     transform="translate(-41.786349,-36.718167)">
    <path
       d="M 369.7,398.3 C 369.3,398 369,395.9 369,393.8 V 390 h 6 6 v 3.9 c 0,3.2 -0.4,4 -2.2,4.5 -3.1,0.8 -8.3,0.8 -9.1,-0.1 z"
       id="path2" />
    <path
       d="m 97.5,396.8 c -4.4,-2.4 -6.5,-5.2 -6.5,-8.5 0,-3.2 0.1,-3.3 3.9,-3.3 2.2,0 4.2,0.4 4.5,0.9 0.3,0.4 3,1.6 6.1,2.5 5.4,1.8 5.5,1.8 5.5,5.7 v 3.9 h -5.7 c -3.2,0 -6.7,-0.6 -7.8,-1.2 z"
       id="path4" />
    <path
       d="m 163,394 v -4 h 6 6 v 4 4 h -6 -6 z"
       id="path6" />
    <path
       d="m 202,394 v -4 h 6 6 v 4 4 h -6 -6 z"
       id="path8" />
    <path
       d="m 276.7,397.3 c -0.4,-0.3 -0.7,-2.2 -0.7,-4 v -3.4 l 5.8,0.3 5.7,0.3 0.3,3.8 0.3,3.7 h -5.4 c -2.9,0 -5.7,-0.3 -6,-0.7 z"
       id="path10" />
    <path
       d="m 413.2,394.3 0.3,-3.8 5.8,-0.3 5.7,-0.3 v 4.1 4 h -6.1 -6 z"
       id="path12" />
    <path
       d="m 457.7,396.3 c -0.4,-0.3 -0.7,-2.1 -0.7,-3.9 0,-3.1 0.2,-3.3 4.5,-4 7.6,-1.1 16,-8.1 18.8,-15.7 0.4,-0.9 0.7,-22.5 0.8,-48 0,-25.4 0.3,-47.2 0.6,-48.5 0.5,-2 1.1,-2.3 4.7,-2 3.9,0.3 4.1,0.5 4.8,4.3 1.1,6.5 0.9,92.8 -0.2,98.2 -1.4,6.2 -6.8,13.6 -12.7,17.4 -4.1,2.6 -5.6,2.9 -12.3,2.9 -4.2,0 -8,-0.3 -8.3,-0.7 z"
       id="path14" />
    <path
       d="m 111.5,383.6 c -1.6,-0.8 -4.2,-2.7 -5.7,-4.3 -2.7,-2.8 -2.8,-3.2 -3,-16.3 L 102.5,349.5 281,349 459.5,348.5 281.4,348.2 103.2,348 l -0.6,-2.2 c -0.3,-1.3 -0.6,-5.1 -0.6,-8.6 0,-5.5 0.3,-6.4 2.2,-7.1 l 2.2,-0.8 -2.2,-0.5 -2.2,-0.6 0.2,-101.4 0.3,-101.3 2.9,-5.8 c 2.2,-4.6 4,-6.6 8.4,-9.5 l 5.5,-3.7 h 170.1 170.1 l 4.4,2.5 c 8.8,5 8.1,-5.9 8.3,126.5 0.1,64.4 0.1,122.4 0,129 l -0.2,12 -4,3.6 c -2.2,2 -5.4,3.9 -7.1,4.3 -1.7,0.3 -80.4,0.6 -174.8,0.6 C 145,384.9 114,384.7 111.5,383.6 Z m 295.3,-55.3 c -4.2,-0.2 -11.4,-0.2 -16,0 -4.6,0.1 -1.1,0.3 7.7,0.3 8.8,0 12.5,-0.2 8.3,-0.3 z m 42,0 c -2.1,-0.2 -5.5,-0.2 -7.5,0 -2.1,0.2 -0.4,0.4 3.7,0.4 4.1,0 5.8,-0.2 3.8,-0.4 z m -109.6,-24 c 2.7,-2.4 3.1,-4.9 1.4,-8.2 -3.3,-6.3 -1.4,-6.1 -52.9,-6.1 -30.2,0 -47.5,0.4 -48.8,1 -2.7,1.5 -5.1,6.5 -4.3,9.4 1.4,5.7 0.3,5.6 47.5,5.9 49.4,0.4 54.7,0.2 57.1,-2 z m 104.7,-52.1 2.2,-1.7 -0.1,-49.7 c 0,-27.4 -0.3,-50.4 -0.6,-51.2 -0.3,-0.8 -1.7,-2.2 -3.2,-3.2 -2.4,-1.6 -13.2,-1.7 -156.6,-1.5 l -154.1,0.1 -1.8,2.1 c -1.6,2 -1.7,5.5 -1.5,52.6 l 0.3,50.5 2.4,1.9 c 2.3,1.9 6.2,1.9 156.6,1.9 145.5,0 154.4,-0.1 156.4,-1.8 z"
       id="path16" />
    <path
       d="m 224,247.6 c -12.5,-2.8 -25,-12.1 -31.7,-23.6 -8.5,-14.5 -9.8,-38.7 -2.9,-55.7 2.2,-5.4 2.6,-5.8 6,-6.1 l 3.6,-0.3 v 14.8 c -0.1,16.6 1.1,23 6.1,32.3 7.5,14.1 17.4,21 33.6,23.3 l 8.8,1.3 0.3,4.2 c 0.3,3.7 -0.1,4.7 -3.1,7.7 -3.2,3.2 -4,3.5 -9.3,3.4 -3.3,0 -8.4,-0.6 -11.4,-1.3 z"
       id="path18" />
    <path
       d="m 352.6,241.4 c -8.7,-1.9 -12.8,-4 -19.4,-9.9 -4.6,-4.1 -5.2,-5.2 -5.2,-8.6 0,-3.6 0.2,-3.9 2.9,-3.9 1.6,0 6,1.3 9.7,2.9 15,6.4 19.1,6.8 49.4,5.8 l 6,-0.2 2.4,-5.5 c 4.4,-9.9 6,-18.3 4.7,-24.8 -2.7,-13.3 -11.3,-25.1 -22,-30 -4.5,-2.1 -6.3,-2.4 -11.3,-1.8 -3.2,0.3 -7.1,1.2 -8.6,2 -2.7,1.5 -2.7,1.5 2.3,1.6 10.2,0.1 15,5.8 14.3,17.3 -0.3,6.3 -0.7,7.2 -3.5,9.8 -6.2,5.4 -17.3,5.1 -23.1,-0.7 -3.3,-3.3 -3.4,-3.5 -3,-10.7 0.3,-7.2 0.3,-7.3 -1.9,-6.2 -2,0.8 -2.3,1.8 -2.3,6.3 0,11.2 -5.2,16.2 -16.6,16.2 -7.6,0 -12,-1.9 -15,-6.5 -2.4,-3.7 -1.3,-22.2 1.5,-26.9 4.6,-7.4 15.9,-15.2 27.1,-18.7 10.2,-3.3 27.1,-3 37.9,0.6 17.6,5.8 30.6,18.9 35.5,35.4 2.1,7 2.2,26.2 0.2,31.8 -1.7,4.8 -7.5,14 -10.9,17.1 -1.8,1.7 -3.5,2.3 -5.9,2.1 -2.1,-0.2 -4.7,0.5 -6.8,1.8 -8.3,5.1 -24.5,6.6 -38.4,3.7 z"
       id="path20" />
    <path
       d="m 249.7,232.3 c -0.3,-1 -2.8,-8.3 -5.6,-16.3 -2.8,-8 -5.1,-15.3 -5.1,-16.2 0,-1.5 -0.9,-1.8 -5.6,-1.8 -10.4,0 -13.3,-3.2 -13.4,-14.2 0,-7.1 0.2,-8 2.8,-10.9 1.8,-2.1 4.2,-3.4 6.8,-3.9 l 3.9,-0.7 -7.5,-2.2 c -4.1,-1.3 -9.4,-3 -11.8,-3.9 -4,-1.6 -4.3,-1.9 -4,-5.1 0.3,-3.2 0.7,-3.6 5.8,-5.4 4.4,-1.6 8.1,-2.1 18.5,-2.1 13,-0.1 13.1,-0.1 19.9,3.3 8.4,4.3 15.6,11.9 18.7,19.9 1.6,4.2 2.3,8.5 2.7,16.4 0.7,16.4 -1.3,21.7 -15.3,40.6 -2.5,3.5 -3.6,4.1 -6.6,4.2 -2.7,0 -3.8,-0.5 -4.2,-1.7 z"
       id="path22" />
    <path
       d="m 481.8,156.3 c -0.5,-49 -0.5,-49.1 -6.6,-55.7 -6.1,-6.5 -6.7,-6.6 -49.5,-6.6 h -38.8 l 0.3,-4.7 0.3,-4.8 6,-0.8 c 3.3,-0.4 22.2,-0.6 42,-0.5 41.2,0.4 41.3,0.4 48.9,8.9 7.3,8.1 7.6,10.8 7.6,63.8 V 201 h -4.9 -4.9 z"
       id="path24" />
    <path
       d="m 77,149.3 c 0,-32.4 0.8,-42.1 4.4,-49.1 3,-5.9 10.2,-12.6 16.4,-15.5 3.9,-1.8 7.1,-2.2 18.4,-2.5 15,-0.4 22.9,1 26.3,4.8 1.7,1.9 3,2 19.7,2 h 17.9 l -0.3,5.3 -0.3,5.2 -18.2,0.3 c -14,0.2 -18.4,-0.1 -19.5,-1.1 -0.7,-0.7 -4.6,-2.4 -8.6,-3.6 -6.2,-2 -8.7,-2.3 -16.6,-1.9 -7.8,0.4 -10.2,1 -13.9,3.1 -5.1,3 -8.8,7 -12,13.1 -2.1,3.9 -2.2,5.3 -2.5,36.4 L 87.9,178 h -5.4 -5.4 z"
       id="path26" />
    <path
       d="m 353.7,89.3 c -0.4,-0.3 -0.7,-2.1 -0.7,-4 0,-3.2 -0.1,-3.3 -4.4,-3.3 -6.4,0 -9.6,-2.9 -9.6,-8.6 0,-6.2 2.4,-8.4 9.4,-8.4 7.1,0 9.6,2 10.3,8.1 0.4,3.4 0.1,5 -1.2,6.2 -1.5,1.6 -1.5,1.7 0.9,1.7 2.4,0 2.6,0.3 2.6,4.5 0,4.4 0,4.5 -3.3,4.5 -1.9,0 -3.7,-0.3 -4,-0.7 z"
       id="path28" />
    <path
       d="m 369.3,79.5 c -1.8,-1.3 -2.3,-2.6 -2.3,-6.1 0,-6.4 2.4,-8.4 9.8,-8.4 7.8,0 10.6,1.6 11,6.2 0.5,5.8 -3,9.1 -10.4,9.5 -4.3,0.3 -6.5,0 -8.1,-1.2 z"
       id="path30" />
  </g>
  <g
     fill="#585748"
     id="g50"
     clip-path="none"
     transform="translate(-41.786349,-36.718167)">
    <path
       d="m 479,377.5 c 0,-3.1 0.3,-3.5 2.6,-3.5 1.4,0 2.4,0.3 2.2,0.8 -3.5,7.3 -4.8,8 -4.8,2.7 z"
       id="path36" />
    <path
       d="m 449,367.5 c 0,-2.4 0.3,-2.5 6,-2.5 5.7,0 6,0.1 6,2.5 0,2.4 -0.3,2.5 -6,2.5 -5.7,0 -6,-0.1 -6,-2.5 z"
       id="path38" />
    <path
       d="m 307,366 c 0,-1.8 0.7,-2 6.5,-2 5.8,0 6.5,0.2 6.5,2 0,1.8 -0.7,2 -6.5,2 -5.8,0 -6.5,-0.2 -6.5,-2 z"
       id="path40" />
    <path
       d="m 333,366 c 0,-1.8 0.7,-2 6.5,-2 5.8,0 6.5,0.2 6.5,2 0,1.8 -0.7,2 -6.5,2 -5.8,0 -6.5,-0.2 -6.5,-2 z"
       id="path42" />
    <path
       d="m 86,111.5 c 0,-2.2 2.9,-7.5 4,-7.5 1.1,0 1.3,4.9 0.4,7.4 -0.8,2.1 -4.4,2.1 -4.4,0.1 z"
       id="path44" />
    <path
       d="m 91,101.1 c 0,-0.5 1.7,-2.4 3.8,-4.2 l 3.7,-3.3 0.3,2.7 c 0.2,1.5 -0.3,3.4 -1.2,4.2 -1.6,1.6 -6.6,2.1 -6.6,0.6 z"
       id="path46" />
    <path
       d="m 100,94 c 0,-1.3 3.4,-3 5.9,-3 1.4,0 2.1,0.6 2.1,2 0,1.7 -0.7,2 -4,2 -2.2,0 -4,-0.4 -4,-1 z"
       id="path48" />
  </g>
  <g
     fill="#2f2f29"
     id="g68"
     clip-path="none"
     transform="translate(-41.786349,-36.718167)">
    <path
       d="m 106,392.8 c -3.9,-1.5 -11.4,-5.2 -12,-5.9 -0.3,-0.4 -1.4,-0.9 -2.5,-1.1 -1.3,-0.2 -1.9,-1.1 -1.8,-2.3 0.1,-1.1 -0.3,-2.2 -0.8,-2.6 -0.6,-0.3 -1.2,-1.7 -1.5,-3 -0.2,-1.3 -0.8,-4.9 -1.3,-7.9 -0.5,-3.1 -0.9,-60.5 -1,-130.5 v -125 l 2.1,-5.9 c 2.9,-8.1 9.8,-14.9 17.2,-17 7.5,-2.2 22.5,-2.1 30.1,0.2 3.3,1 6.5,1.7 7.2,1.5 0.6,-0.2 1.7,0.5 2.3,1.6 1,2 1.9,2.1 16.6,2.1 14.5,0 15.6,-0.1 16.1,-1.9 0.4,-1.6 1.6,-2 7.1,-2.4 3.7,-0.2 50.9,-0.3 105,-0.3 54,0.1 98.2,-0.2 98.2,-0.6 0,-0.4 18,-0.7 40.1,-0.8 37.2,0 40.3,0.1 44.2,1.8 5.1,2.3 9,6.3 11.4,11.7 1.7,3.8 1.8,9.1 1.8,86.5 0,45.4 0.4,83.1 0.8,83.8 0.5,0.6 0.5,1.7 0.2,2.3 -0.4,0.5 -0.9,22.7 -1.1,49.1 l -0.4,48.1 -2.8,5.1 c -2.6,4.5 -11,11.8 -13,11.4 -0.4,-0.1 -2.3,0.2 -4.2,0.6 -2.7,0.5 -39.2,1.6 -48,1.4 -0.8,0 -9.5,-0.2 -19.2,-0.4 -9.8,-0.3 -17.8,-0.1 -17.8,0.3 0,0.5 -2.8,0.6 -6.2,0.2 -9.1,-0.9 -159.6,-1 -160.2,-0.1 -0.3,0.5 -4,0.4 -8.3,-0.1 -4.3,-0.4 -14.5,-0.6 -22.8,-0.3 -8.2,0.4 -15.7,0.6 -16.5,0.5 -9.1,-0.6 -55.5,-0.7 -55.9,0 -0.4,0.4 -1.7,0.4 -3.1,-0.1 z m 351.8,-11.4 c 3.9,-0.8 11.2,-6.9 11.2,-9.5 0,-1.6 -0.7,-1.9 -5.5,-1.9 -3,0 -5.5,-0.4 -5.5,-1 0,-0.5 -1.3,-1 -3,-1 -1.6,0 -3,0.5 -3,1 0,0.7 -58.3,1 -173,1 -166.1,0 -173,0.1 -173,1.8 0,2.2 5.5,7.7 9,9.1 2.7,1.1 337.4,1.6 342.8,0.5 z m -51,-17.4 c 53.1,-0.1 62.2,-0.3 62.3,-1.6 0.1,-0.8 0.1,-2.5 0.1,-3.9 0,-1.4 0,-3.4 -0.1,-4.5 -0.1,-2 -0.6,-2 -181.8,-1.8 l -181.8,0.3 v 5.5 5.5 l 102,0.5 c 56.1,0.3 109.9,0.4 119.5,0.3 9.6,-0.1 45.5,-0.2 79.8,-0.3 z m 62,-25.3 0.3,-6.7 H 289.6 c -112.8,0 -180.5,0.4 -182.1,1 -2,0.7 -2.5,1.6 -2.5,4.2 0,1.8 0.3,4.3 0.6,5.5 l 0.6,2.3 178.2,0.3 c 97.9,0.1 179.5,0.2 181.1,0.2 3,-0.1 3,-0.1 3.3,-6.8 z m 0,-115.2 C 469,108 469.7,117 460.9,112 l -4.4,-2.5 H 289.4 122.3 l -5.5,3.7 c -4.4,2.9 -6.2,4.9 -8.4,9.5 l -2.9,5.8 -0.3,97.5 c -0.1,53.6 0,98 0.2,98.7 0.4,0.9 38.6,1.2 181.8,1 l 181.3,-0.2 z"
       id="path52" />
    <path
       d="m 278.9,309.3 c -49.7,-0.4 -46.8,0.2 -47.7,-9.1 -0.5,-5.4 1.5,-10.4 4.7,-12.2 1.3,-0.6 19.5,-1 51.8,-1 43.6,0 50.1,0.2 52.1,1.6 5.4,3.8 7,13.2 2.9,18 -2.8,3.2 -1.6,3.2 -63.8,2.7 z"
       id="path54" />
    <path
       d="m 186.6,296.9 c -5.7,-1.6 -10.6,-8.4 -10.6,-14.5 0,-1.5 1.1,-4.6 2.5,-6.9 8.8,-15.1 30.9,-2.4 24.1,13.9 -2.3,5.5 -10.2,9.2 -16,7.5 z m 6.7,-4.3 c 4.3,-1.8 6.7,-4.6 7.4,-8.9 0.4,-3 0,-4 -3,-7.3 -3,-3.3 -4.1,-3.9 -7.7,-3.9 -5.5,0 -10,4.6 -10,10.2 0,4.3 3.9,9.9 7.2,10.6 1.3,0.2 2.4,0.5 2.6,0.6 0.1,0 1.7,-0.5 3.5,-1.3 z"
       id="path56" />
    <path
       d="m 392.9,296.4 c -1.7,-2.1 0,-4.9 3.1,-4.9 2.7,0 4.6,2.5 3.7,4.9 -0.8,2.1 -5.1,2.1 -6.8,0 z"
       id="path58" />
    <path
       d="m 393.1,271.1 c -0.8,-1.4 -0.7,-2.2 0.4,-3.1 2,-1.7 5.9,-0.8 6.3,1.4 0.7,3.6 -5,5 -6.7,1.7 z"
       id="path60" />
    <path
       d="m 127.9,255.1 -2.4,-1.9 -0.3,-53.5 c -0.2,-49.9 -0.1,-53.6 1.5,-55.6 l 1.8,-2.1 157,-0.2 c 147,-0.1 157.3,0 159.7,1.6 1.5,0.9 2.9,2.4 3.2,3.2 0.3,0.9 0.7,25.2 0.7,54.2 l 0.1,52.6 -2.2,1.8 c -2.1,1.7 -9.4,1.8 -159.5,1.8 -153.4,0 -157.3,0 -159.6,-1.9 z m 113.8,-12.6 c 1.9,-1.9 3.3,-4 3.1,-4.7 -0.3,-0.7 -4.2,-1.8 -9.1,-2.5 -16.2,-2.3 -26.1,-9.2 -33.6,-23.3 -5.1,-9.5 -6.3,-15.8 -6.3,-32.4 0.1,-8.2 -0.3,-14.5 -0.7,-14 -1.5,1.7 -5.1,11.9 -6.1,17.3 -2.3,12.5 0.2,27.7 6.3,38.1 6.7,11.5 19.2,20.8 31.7,23.6 9.1,2 10.8,1.8 14.7,-2.1 z m 139.8,-4.9 c 5.2,-1.6 11.5,-5.9 10.4,-7.1 -0.4,-0.3 -3.7,-0.1 -7.5,0.6 -14,2.4 -33.5,-0.2 -47.6,-6.5 -3.2,-1.4 -5.8,-2.2 -5.8,-1.7 0,1.4 10,10.1 14,12.1 9.4,4.8 25.9,6 36.5,2.6 z m 25.2,-14.5 c 5,-7.8 6.3,-12.2 6.3,-21.5 0,-9.4 -1.9,-16.8 -6.1,-24.2 -15,-26.5 -49.3,-35.5 -75.4,-19.9 -6.8,4.1 -12.2,9 -14.8,13.5 -2.1,3.5 -1.5,3.8 1.6,1 5.6,-5.3 14.5,-4.8 21.2,1.2 l 3.5,3 4.9,-4.5 c 7.3,-6.9 12.1,-8.9 22.2,-9.5 7.7,-0.4 9.2,-0.2 14,2 13.2,6 22.9,22.3 22.9,38.3 0,6.1 -3.1,17.8 -6.5,24.6 -1.4,2.6 -2.5,5.2 -2.5,5.5 0,1.6 5.4,-4.4 8.7,-9.5 z m -149.2,3.7 c 13.3,-18.1 16.1,-24.9 15.3,-37.6 -0.7,-10.2 -3.8,-17.9 -9.8,-24.5 -11.8,-12.9 -28.6,-16 -47.5,-8.7 l -3,1.2 3.5,1.5 c 1.9,0.8 6.6,2.4 10.3,3.4 3.7,1.1 8.8,2.9 11.3,4.1 13.5,6.3 16.9,18.5 7.7,28 l -3.5,3.6 5.2,14.9 c 2.8,8.1 5.4,15.6 5.7,16.6 0.8,2.5 1.4,2.1 4.8,-2.5 z m 77,-30.8 c 8,-4.9 8.5,-15.9 1,-21.8 -4.1,-3.2 -7.8,-3.6 -12.9,-1.3 -5.5,2.4 -8.6,7 -8.6,12.6 0,9.8 11.8,15.9 20.5,10.5 z m 35.5,-1.9 c 7.5,-5.4 6.1,-16.7 -2.5,-20.8 -3.2,-1.5 -4,-1.6 -7.8,-0.3 -8.2,2.9 -11.4,12.7 -6.1,18.9 4.3,5.2 11.1,6.1 16.4,2.2 z M 242.8,192 c 7.8,-7.8 2.6,-20 -8.5,-20 -3.8,0 -5,0.5 -7.9,3.4 -2.9,2.9 -3.4,4.1 -3.4,8.3 0.1,7.6 4,11.2 12.2,11.3 3.8,0 5.2,-0.5 7.6,-3 z"
       id="path62" />
    <path
       d="m 79.3,166.5 c 0,-2.7 0.2,-3.8 0.4,-2.2 0.2,1.5 0.2,3.7 0,5 -0.2,1.2 -0.4,0 -0.4,-2.8 z"
       id="path64" />
  </g>
  <g
     id="g3658"
     transform="translate(-45.552571,-41.183497)">
    <text
       xml:space="preserve"
       style="font-size:74.6667px;fill:#2f2f29;fill-opacity:1"
       x="69.093864"
       y="472.83533"
       id="text847"><tspan
         sodipodi:role="line"
         x="69.093864"
         y="472.83533"
         style="font-style:normal;font-variant:normal;font-weight:bold;font-stretch:normal;font-size:74.6667px;font-family:sans-serif;-inkscape-font-specification:'sans-serif Bold'"
         id="tspan899">PersonaPod</tspan></text>
    <text
       xml:space="preserve"
       style="font-size:74.6667px;fill:#faf5e9;fill-opacity:1"
       x="74.155426"
       y="480.30496"
       id="text847-3"
       inkscape:label="text847-3"><tspan
         sodipodi:role="line"
         x="74.155426"
         y="480.30496"
         style="font-style:normal;font-variant:normal;font-weight:bold;font-stretch:normal;font-size:74.6667px;font-family:sans-serif;-inkscape-font-specification:'sans-serif Bold';fill:#faf5e9;fill-opacity:1"
         id="tspan899-6">PersonaPod</tspan></text>
  </g>
</svg>
